<?xml version="1.0" standalone="no"?><!DOCTYPE svg PUBLIC "-//W3C//DTD SVG 1.1//EN" "http://www.w3.org/Graphics/SVG/1.1/DTD/svg11.dtd"><svg t="1509440009740" class="icon" style="" viewBox="0 0 1024 1024" version="1.1" xmlns="http://www.w3.org/2000/svg" p-id="7817" xmlns:xlink="http://www.w3.org/1999/xlink" width="18" height="18"><defs><style type="text/css"></style></defs><path d="M511.310292 886.322337c-3.446495 0-6.891967-1.00284-9.880021-2.957355C433.201329 838.773392 91.610464 604.984764 66.125023 382.54051c-7.981788-69.098751 14.248516-128.782062 67.904553-182.464705 35.553751-40.250726 86.280062-62.398142 142.92313-62.398142 80.880075 0 165.665087 44.944632 232.593406 123.326816l17.181311 11.725042-13.731746-11.750625c67.00916-78.356602 151.768589-123.301234 232.538147-123.301234 56.617485 0 107.343797 22.119787 142.81466 62.287625 54.063313 54.119595 76.42767 114.154923 68.448952 183.635367-25.673729 221.790362-367.373065 455.229019-435.605076 499.765351C518.1777 885.347127 514.756787 886.322337 511.310292 886.322337zM276.951683 173.829024c-46.139853 0-87.230714 17.778922-115.728768 50.04786-0.433882 0.51677-1.762133 1.901303-2.251274 2.334161-44.756343 44.780903-63.590294 94.773504-56.967456 152.202471 22.769586 198.751646 339.420433 421.303348 409.333736 468.174865 83.72896-55.744605 386.780067-270.210142 409.578306-467.141326 6.622838-57.809637-12.348236-108.129696-58.026578-153.805992-0.38067-0.408299-1.600451-1.708921-1.953492-2.118244-28.200272-31.915897-69.291133-49.694819-115.403357-49.694819-70.211085 0-144.957463 40.331567-205.073632 110.653169-14.735609 17.069771-43.641963 17.0974-58.32436 0.024559C422.017616 214.160591 347.245655 173.829024 276.951683 173.829024z" p-id="7818" fill="#2A7DAD"></path></svg>